<svg xmlns="http://www.w3.org/2000/svg" width="52" height="50" viewBox="0 0 80 78">
  <path fill="#010002" d="M39.773,0.31 L0,30.004 L0,77.226 L79.536,77.226 L79.536,30.004 L39.773,0.31 Z M28.77,21.499 C29.937,19.366 31.545,17.76 33.585,16.694 C35.62,15.619 37.942,15.078 40.568,15.078 C42.782,15.078 44.759,15.513 46.489,16.37 C48.218,17.24 49.534,18.464 50.456,20.057 C51.356,21.652 51.823,23.391 51.823,25.274 C51.823,27.521 51.129,29.553 49.741,31.371 C48.001,33.663 45.78,34.807 43.061,34.807 C42.329,34.807 41.782,34.685 41.407,34.427 C41.042,34.165 40.786,33.795 40.664,33.298 C39.642,34.31 38.433,34.818 37.075,34.818 C35.61,34.818 34.396,34.311 33.432,33.309 C32.466,32.297 31.985,30.948 31.985,29.278 C31.985,27.194 32.563,25.312 33.728,23.606 C35.144,21.522 36.946,20.476 39.152,20.476 C40.723,20.476 41.883,21.077 42.627,22.281 L42.958,20.813 L46.458,20.813 L44.46,30.292 C44.335,30.898 44.273,31.278 44.273,31.455 C44.273,31.683 44.325,31.835 44.422,31.952 C44.521,32.063 44.645,32.117 44.779,32.117 C45.215,32.117 45.758,31.869 46.425,31.348 C47.326,30.685 48.052,29.774 48.606,28.653 C49.16,27.524 49.445,26.354 49.445,25.145 C49.445,22.98 48.663,21.168 47.093,19.7 C45.52,18.25 43.323,17.515 40.515,17.515 C38.122,17.515 36.098,18.002 34.438,18.983 C32.778,19.949 31.525,21.326 30.673,23.097 C29.834,24.857 29.415,26.704 29.415,28.617 C29.415,30.473 29.894,32.169 30.826,33.691 C31.771,35.224 33.086,36.332 34.782,37.036 C36.478,37.733 38.425,38.082 40.61,38.082 C42.707,38.082 44.519,37.789 46.042,37.201 C47.564,36.614 48.781,35.744 49.708,34.56 L52.515,34.56 C51.635,36.352 50.288,37.752 48.466,38.775 C46.374,39.938 43.826,40.515 40.822,40.515 C37.904,40.515 35.396,40.028 33.28,39.047 C31.159,38.061 29.591,36.613 28.55,34.697 C27.522,32.779 27.015,30.689 27.015,28.429 C27.017,25.952 27.595,23.64 28.77,21.499 Z M2.804,30.941 L32.148,50.621 L2.804,73.333 L2.804,30.941 Z M5.033,74.844 L39.773,47.959 L74.502,74.844 L5.033,74.844 Z M76.729,73.333 L47.391,50.621 L76.73,30.941 L76.73,73.333 L76.729,73.333 Z M41.205,23.661 C41.671,24.192 41.904,24.956 41.904,25.953 C41.904,26.844 41.73,27.809 41.391,28.832 C41.057,29.868 40.648,30.658 40.182,31.193 C39.864,31.568 39.524,31.845 39.19,32.019 C38.751,32.268 38.284,32.389 37.78,32.389 C37.106,32.395 36.55,32.125 36.089,31.595 C35.639,31.064 35.416,30.249 35.416,29.13 C35.416,28.291 35.574,27.325 35.903,26.241 C36.232,25.153 36.713,24.325 37.356,23.732 C38.003,23.144 38.702,22.851 39.456,22.851 C40.162,22.856 40.749,23.125 41.205,23.661 Z"/>
</svg>
