<svg xmlns="http://www.w3.org/2000/svg" width="78" height="50" viewBox="0 0 97 69">
  <path d="M95.201,11.538 C94.015,6.386 89.801,2.585 84.728,2.018 C72.715,0.677 60.556,0.67 48.453,0.677 C36.348,0.67 24.187,0.677 12.174,2.018 C7.104,2.585 2.893,6.386 1.707,11.538 C0.019,18.875 0,26.884 0,34.438 C0,41.992 0,50 1.688,57.336 C2.872,62.487 7.084,66.288 12.157,66.856 C24.169,68.198 36.329,68.205 48.434,68.198 C60.541,68.205 72.698,68.198 84.709,66.856 C89.779,66.289 93.994,62.488 95.18,57.336 C96.869,49.999 96.875,41.991 96.875,34.438 C96.875,26.884 96.889,18.875 95.201,11.538 Z M35.936,49.474 C35.936,38.758 35.936,28.154 35.936,17.437 C46.203,22.794 56.402,28.115 66.734,33.505 C56.434,38.847 46.23,44.136 35.936,49.474 Z"/>
</svg>
